<?xml version="1.0" encoding="UTF-8" standalone="no"?>
<!DOCTYPE svg PUBLIC "-//W3C//DTD SVG 1.1//EN" "http://www.w3.org/Graphics/SVG/1.1/DTD/svg11.dtd">
<svg width="100%" height="100%" viewBox="0 0 322 80" version="1.1" xmlns="http://www.w3.org/2000/svg" xmlns:xlink="http://www.w3.org/1999/xlink" xml:space="preserve" xmlns:serif="http://www.serif.com/" style="fill-rule:evenodd;clip-rule:evenodd;stroke-linecap:round;stroke-linejoin:round;stroke-miterlimit:0.726744;">
    <g transform="matrix(1,0,0,1,-19,-200)">
        <g transform="matrix(0.979385,0,0,0.979385,-60.0618,-19.9331)">
            <g id="cloud">
                <path d="M193.214,268.327C193.742,267.614 189.105,269.721 187.081,268.709C184.921,267.629 181.917,260.821 183.274,258.106C184.31,256.036 193.97,251.673 196.053,253.756C196.33,254.034 200.248,255.814 200.675,255.387C201.547,254.515 199.385,251.138 201.762,249.95C203.065,249.298 209.377,248.588 209.647,248.318C210.968,246.997 207.452,244.552 208.287,242.881C209.341,240.773 209.967,239.026 211.55,237.443C213.511,235.482 221.431,232.596 224.6,234.181C225.254,234.508 229.983,236.41 230.038,236.356C231.086,235.307 229.807,232.936 231.669,232.006C234.809,230.435 238.315,229.226 241.457,227.655C243.7,226.534 247.228,228.984 249.341,227.927C252.351,226.423 258.209,225.104 261.032,227.927C261.803,228.698 261.349,230.691 262.12,231.462C263.275,232.617 267.112,230.423 268.645,231.19C272.914,233.325 278.527,234.819 281.967,238.259C285.651,241.943 283.801,249.169 279.52,251.309C278.716,251.711 274.886,255.104 275.714,255.931C277.022,257.24 283.243,254.069 284.414,253.484C288.309,251.537 293.076,255.931 295.289,255.931C295.533,255.931 296.309,256.27 296.377,256.203C297.193,255.387 297.102,252.396 298.008,251.037C300.105,247.892 309.231,248.938 311.33,251.037C315.312,255.019 314.996,258.659 312.69,263.272C312.184,264.284 309.134,268.688 309.699,269.253C310.406,269.96 313.483,273.75 315.408,272.788C316.26,272.362 317.441,269.667 318.127,268.981C321.892,265.217 332.286,268.731 334.712,271.156C339.51,275.954 330.866,275.254 328.731,276.322C328.318,276.528 326.624,277.478 327.099,277.953C328.116,278.971 333.733,278.28 335.256,279.041C336.228,279.527 340.568,283.516 341.237,282.847C342.982,281.102 343.084,278.769 346.675,278.769C349.647,278.769 351.766,279.51 353.744,281.488C354.005,281.749 355.909,284.216 356.462,283.663C357.595,282.53 356.252,277.984 359.997,279.857C364.419,282.068 369.752,285.566 374.95,285.566C382.456,285.566 390.276,287.322 397.245,289.644C399.354,290.348 402.332,290.46 404.585,290.46C405.529,290.46 406.089,290.732 407.032,290.732C407.485,290.732 408.845,290.732 408.392,290.732C393.243,290.732 378.425,290.46 363.259,290.46C359.629,290.46 357.038,289.655 353.744,288.557C352.777,288.235 349.327,285.089 349.122,285.294C348.204,286.211 351.448,289.493 350.753,290.188C350.065,290.876 345.363,290.46 344.228,290.46C337.617,290.46 330.467,291.401 324.38,289.372C322.879,288.872 321.334,288.121 320.03,287.469C319.512,287.21 317.894,285.256 317.583,285.566C316.682,286.467 320.134,288.725 318.943,289.916C317.932,290.927 310.982,285.528 309.971,285.022C308.362,284.218 303.905,286.018 302.086,286.382C299.302,286.939 294.901,285.89 292.299,285.022C290.219,284.329 286.903,285.995 284.958,285.022C284.407,284.747 280.34,284.202 279.792,284.75C278.748,285.795 279.307,287.54 277.073,288.285C275.952,288.659 273.539,287.375 273.539,288.557C273.539,288.9 276.43,289.298 276.801,289.372C280.398,290.092 284.002,289.869 287.405,291.004C289.328,291.645 291.428,294.211 292.57,295.354C293.389,296.172 291.509,297.774 291.211,298.073C290.909,298.375 291.483,299.29 291.483,299.16C291.483,298.254 283.901,298.284 283.055,298.073C278.266,296.875 271.488,297.529 266.47,297.529C265.67,297.529 261.553,297.008 261.032,297.529C258.943,299.618 254.768,301.335 251.516,301.335C244.996,301.335 238.518,299.581 232.485,298.073C230.646,297.613 227.204,297.858 225.688,298.616C224.631,299.145 222.153,298.888 222.153,298.888L228.95,293.994C228.95,293.994 227.863,295.626 227.319,296.441C226.005,298.412 221.614,300.518 219.435,301.063C211.15,303.134 203.115,304.598 193.878,304.598C188.714,304.598 181.316,302.639 178.381,299.704C176.765,298.089 178.687,295.507 175.662,293.994C171.382,291.854 164.38,295.49 159.621,294.538C146.836,291.981 133.639,290.927 124.004,286.11C121.237,284.726 116.52,286.382 113.401,286.382C111.781,286.382 107.704,284.065 105.245,285.294C101.445,287.194 95.92,286.654 91.379,286.654C89.88,286.654 78.991,285.719 82.407,282.303C86.457,278.253 97.733,280.486 103.341,277.681C104.823,276.94 107.968,278.493 109.051,277.41C109.881,276.58 106.346,274.956 109.051,273.603C113.656,271.301 120.889,274.345 125.636,271.972C127.101,271.239 130.422,273.439 131.345,272.516C131.986,271.875 130.94,270.608 131.345,269.797C132.331,267.825 144.117,264.084 146.842,265.447C151.322,267.687 154.357,270.243 157.446,273.331C157.784,273.67 158.362,272.958 158.533,272.788C159.649,271.672 161.58,269.009 164.243,270.341C175.3,275.869 187.05,274.45 193.606,267.894" style="fill:none;stroke:black;stroke-width:2px;"/>
                <g id="texture">
                    <path d="M101.482,283.582C101.2,282.864 100.481,284.59 100.178,284.893C99.577,285.493 97.077,286.916 98.601,286.154" style="fill:none;stroke:black;stroke-width:1px;"/>
                    <path d="M105.972,282.976C105.044,283.171 103.411,286.154 101.912,286.154" style="fill:none;stroke:black;stroke-width:1px;"/>
                    <path d="M110.711,282.498C110.846,281.956 107.995,284.735 107.432,284.735" style="fill:none;stroke:black;stroke-width:1px;"/>
                    <path d="M113.636,282.789C113.506,282.543 110.27,284.947 110.27,285.208" style="fill:none;stroke:black;stroke-width:1px;"/>
                    <path d="M119.48,281.493C119.446,281.371 114.924,285.839 113.897,285.839" style="fill:none;stroke:black;stroke-width:1px;"/>
                    <path d="M124.325,280.886C122.553,281.523 120.32,285.681 117.681,285.681" style="fill:none;stroke:black;stroke-width:1px;"/>
                    <path d="M126.041,282.557C126.035,281.933 123.288,285.208 122.727,285.208" style="fill:none;stroke:black;stroke-width:1px;"/>
                    <path d="M129.985,281.971C131.678,281.569 127.687,284.045 126.67,284.893C126.415,285.105 125.437,286.154 125.251,286.154" style="fill:none;stroke:black;stroke-width:1px;"/>
                    <path d="M132.766,283.414C132.836,283.082 129.508,286.627 127.931,286.627" style="fill:none;stroke:black;stroke-width:1px;"/>
                    <path d="M138.215,282.247C138.161,281.943 135.341,284.657 134.87,285.05C133.924,285.838 129.508,287.38 129.508,288.204" style="fill:none;stroke:black;stroke-width:1px;"/>
                    <path d="M139.55,284.213C139.839,283.594 138.073,285.158 137.866,285.366C136.835,286.396 134.819,288.204 133.293,288.204" style="fill:none;stroke:black;stroke-width:1px;"/>
                    <path d="M143.31,284.336C142.941,284.006 139.004,287.788 138.339,288.204C137.633,288.645 136.866,288.941 136.131,289.308C135.931,289.408 134.713,289.939 135.027,289.939" style="fill:none;stroke:black;stroke-width:1px;"/>
                    <path d="M146.044,285.721C145.585,285.588 143.206,288.169 142.597,288.677C142.077,289.11 138.497,291.126 138.497,291.516" style="fill:none;stroke:black;stroke-width:1px;"/>
                    <path d="M150.035,287.056C149.917,286.557 142.583,292.317 143.7,291.2" style="fill:none;stroke:black;stroke-width:1px;"/>
                    <path d="M153.69,288.377C153.373,287.381 150.188,290.67 149.535,291.043C148.999,291.349 147.351,292.147 147.8,292.147" style="fill:none;stroke:black;stroke-width:1px;"/>
                    <path d="M156.023,289.737C155.932,289.291 153.998,291.076 153.162,291.673C152.946,291.828 151.427,292.935 151.743,292.935" style="fill:none;stroke:black;stroke-width:1px;"/>
                    <path d="M158.968,290.092C160.079,290.121 156.616,292.003 155.527,293.093" style="fill:none;stroke:black;stroke-width:1px;"/>
                    <path d="M165.588,288.525C164.129,288.468 161.354,291.679 160.1,292.462C159.631,292.755 157.348,294.268 157.893,293.723" style="fill:none;stroke:black;stroke-width:1px;"/>
                    <path d="M168.993,288.963C168.733,288.428 167.593,289.576 167.354,289.781C165.831,291.086 163.186,294.039 161.046,294.039" style="fill:none;stroke:black;stroke-width:1px;"/>
                    <path d="M173.483,289.609C172.992,289.095 171.848,290.131 171.454,290.412C170.038,291.423 167.391,293.881 165.777,293.881" style="fill:none;stroke:black;stroke-width:1px;"/>
                    <path d="M179.642,288.165C179.732,287.238 176.507,290.012 176.185,290.254C174.531,291.495 171.913,292.161 170.508,293.566" style="fill:none;stroke:black;stroke-width:1px;"/>
                    <path d="M182.108,290.304C182.316,289.681 178.583,292.204 177.919,292.62C177.199,293.07 176.658,293.985 176.658,293.723" style="fill:none;stroke:black;stroke-width:1px;"/>
                    <path d="M186.873,290.846C184.586,291.166 181.22,294.359 178.708,295.616C178.208,295.866 177.658,296.72 177.131,296.72" style="fill:none;stroke:black;stroke-width:1px;"/>
                    <path d="M187.018,294.443C187.628,293.239 182.828,296.788 181.704,297.35C181.329,297.538 178.774,298.77 179.496,298.77" style="fill:none;stroke:black;stroke-width:1px;"/>
                    <path d="M187.038,297.227C185.717,296.877 183.643,299.055 182.335,299.873C181.879,300.158 179.744,301.675 180.285,301.135" style="fill:none;stroke:black;stroke-width:1px;"/>
                    <path d="M189.233,298.883C189.405,298.392 185.457,301.166 184.385,302.239" style="fill:none;stroke:black;stroke-width:1px;"/>
                    <path d="M196.872,297.523C197.192,297.33 198.052,296.613 197.788,296.877C195.72,298.946 191.94,300.647 189.431,302.081C189.034,302.308 185.961,303.575 185.961,304.131L186.908,304.131" style="fill:none;stroke:black;stroke-width:1px;"/>
                    <path d="M201.467,297.917C201.934,296.809 196.081,301.337 194.792,302.239C194.302,302.582 191.338,304.281 192.269,303.816" style="fill:none;stroke:black;stroke-width:1px;"/>
                    <path d="M206.831,297.143C204.279,297.736 202.267,300.767 200.311,302.396C199.645,302.951 198.448,303.313 197.946,303.816" style="fill:none;stroke:black;stroke-width:1px;"/>
                    <path d="M210.157,297.626C210.753,296.83 208.752,298.687 208.511,298.927C207.338,300.1 206.15,301.069 204.727,301.923C204.632,301.98 201.878,303.658 202.677,303.658" style="fill:none;stroke:black;stroke-width:1px;"/>
                    <path d="M216.356,296.518C216.587,295.854 213.338,298.257 213.084,298.454C211.555,299.643 210.051,300.926 208.511,302.081C208.162,302.343 206.934,302.813 206.934,303.343" style="fill:none;stroke:black;stroke-width:1px;"/>
                    <path d="M221.576,295.493C221.026,295.428 217.953,298.296 216.869,299.085C216.561,299.309 214.68,301.135 214.819,301.135" style="fill:none;stroke:black;stroke-width:1px;"/>
                    <path d="M235.15,293.024C235.248,292.203 233.438,294.213 233.269,294.354C232.034,295.383 230.351,297.508 228.538,297.508" style="fill:none;stroke:black;stroke-width:1px;"/>
                    <path d="M238.115,294.842C239.356,293.77 234.057,296.812 234.057,297.508" style="fill:none;stroke:black;stroke-width:1px;"/>
                    <path d="M241.205,296.015C240.255,296.351 238.553,298.296 237.684,298.296" style="fill:none;stroke:black;stroke-width:1px;"/>
                    <path d="M244.176,297.626C243.119,297.852 242.232,298.952 241.469,299.716" style="fill:none;stroke:black;stroke-width:1px;"/>
                    <path d="M188.122,279.211C188.312,278.59 186.396,281.581 185.804,281.581" style="fill:none;stroke:black;stroke-width:1px;"/>
                    <path d="M192.382,278.708C192.209,278.519 189.839,282.527 188.169,282.527" style="fill:none;stroke:black;stroke-width:1px;"/>
                    <path d="M197.477,278.166C197.47,277.774 195.997,279.745 195.738,280.004C194.324,281.418 192.137,282.186 190.85,283.474" style="fill:none;stroke:black;stroke-width:1px;"/>
                    <path d="M202.782,278.585C203.013,277.894 200.554,280.765 200.154,281.108C198.625,282.419 195.304,285.366 193.215,285.366" style="fill:none;stroke:black;stroke-width:1px;"/>
                    <path d="M205.543,279.733C205.477,279.251 203.311,281.578 202.992,281.897C201.575,283.314 199.282,285.524 197.157,285.524" style="fill:none;stroke:black;stroke-width:1px;"/>
                    <path d="M196.642,287.475C196.832,287.917 192.604,290.077 192.111,290.57" style="fill:none;stroke:black;stroke-width:1px;"/>
                    <path d="M206.752,281.389C206.843,280.343 204.32,283.199 203.78,283.631C202.12,284.96 200.637,285.44 198.892,286.312C198.043,286.737 198.672,287.602 198.419,288.362C198.154,289.156 195.757,291.043 194.95,291.043" style="fill:none;stroke:black;stroke-width:1px;"/>
                    <path d="M216.251,277.871C215.134,278.418 214.023,280.286 212.927,281.108C211.053,282.514 208.031,281.903 206.777,283.158C206.218,283.717 206.688,285.454 205.83,286.312C203.875,288.268 200.548,288.598 198.577,290.57" style="fill:none;stroke:black;stroke-width:1px;"/>
                    <path d="M211.886,283.749C211.778,283.548 210.261,285.666 209.93,285.997C208.333,287.594 206.349,289.466 203.938,289.466" style="fill:none;stroke:black;stroke-width:1px;"/>
                    <path d="M224.146,277.264C224.281,277.165 223.342,278.262 223.019,278.585C222.154,279.449 220.989,280.343 219.865,280.793C218.744,281.241 216.259,281.088 215.45,281.897C214.595,282.751 213.958,284.45 213.242,285.524C212.787,286.205 210.877,287.051 210.877,287.731" style="fill:none;stroke:black;stroke-width:1px;"/>
                    <path d="M226.716,277.915C227.408,278.229 225.362,280.59 224.28,280.95C222.617,281.505 219.466,281.98 218.446,283C218.142,283.304 218.645,284.494 218.446,284.893C218.185,285.414 217.184,286.043 217.184,286.47" style="fill:none;stroke:black;stroke-width:1px;"/>
                    <path d="M228.491,279.669C228.351,279.495 226.96,281.74 226.488,282.212C225.619,283.081 223.195,282.49 222.703,283.474C222.179,284.522 222.112,287.1 220.338,287.1" style="fill:none;stroke:black;stroke-width:1px;"/>
                    <path d="M229.865,282.725C230.291,281.813 228.471,283.822 227.907,284.104" style="fill:none;stroke:black;stroke-width:1px;"/>
                    <path d="M140.72,277.452C140.657,276.306 138.721,279.374 136.92,279.374" style="fill:none;stroke:black;stroke-width:1px;"/>
                    <path d="M145.315,277.535C145.474,277.255 141.242,281.266 138.97,281.266" style="fill:none;stroke:black;stroke-width:1px;"/>
                    <path d="M151.954,274.732C152.369,273.747 151.471,275.23 151.112,275.589" style="fill:none;stroke:black;stroke-width:1px;"/>
                    <path d="M154.209,275.505C153.703,275.135 151.859,277.787 151.112,278.427C149.413,279.884 146.98,281.108 144.804,281.108" style="fill:none;stroke:black;stroke-width:1px;"/>
                    <path d="M155.839,278.625C154.951,278.398 152.683,282.527 150.954,282.527" style="fill:none;stroke:black;stroke-width:1px;"/>
                    <path d="M158.574,280.694C158.557,280.623 153.95,283.356 153.95,284.577" style="fill:none;stroke:black;stroke-width:1px;"/>
                    <path d="M162.544,282.099C161.027,281.814 156.98,284.702 155.685,285.997" style="fill:none;stroke:black;stroke-width:1px;"/>
                    <path d="M164.254,282.266C164.638,282.067 163.544,282.711 163.096,283.158" style="fill:none;stroke:black;stroke-width:1px;"/>
                    <path d="M169.749,281.764C169.648,281.146 167.06,283.452 166.723,283.789" style="fill:none;stroke:black;stroke-width:1px;"/>
                    <path d="M228.933,239.231C229.154,238.586 226.015,240.006 226.015,241.055" style="fill:none;stroke:black;stroke-width:1px;"/>
                    <path d="M229.518,241.789C229.208,240.855 225.857,242.96 225.857,243.893" style="fill:none;stroke:black;stroke-width:1px;"/>
                    <path d="M228.118,245.721C228.653,245.241 226.184,246.045 226.015,246.101C224.704,246.538 222.23,247.808 222.23,249.412" style="fill:none;stroke:black;stroke-width:1px;"/>
                    <path d="M227.763,262.19C227.679,261.197 225.699,264.038 225.699,264.078" style="fill:none;stroke:black;stroke-width:1px;"/>
                    <path d="M233.942,261.939C233.819,261.287 233.03,262.74 232.796,262.974" style="fill:none;stroke:black;stroke-width:1px;"/>
                    <path d="M236.473,263.531C236.074,262.872 234.862,265.339 234.057,265.339" style="fill:none;stroke:black;stroke-width:1px;"/>
                    <path d="M242.317,262.087C242.699,261.238 240.476,264.552 239.576,265.339C237.041,267.557 232.234,269.439 228.853,269.439" style="fill:none;stroke:black;stroke-width:1px;"/>
                    <path d="M242.508,266.418C243.017,265.368 239.584,268.882 238.63,269.597C236.57,271.142 230.129,274.256 227.434,272.908" style="fill:none;stroke:black;stroke-width:1px;"/>
                    <path d="M245.598,267.882C245.663,267.805 246.357,267.094 246.357,267.074C246.357,267.028 245.307,267.966 245.253,268.02C244.587,268.686 243.834,269.104 243.045,269.597C240.518,271.176 238.015,273.109 235.003,273.539C234.452,273.618 230.43,274.513 230.43,274.012" style="fill:none;stroke:black;stroke-width:1px;"/>
                    <path d="M247.392,269.828C247.599,269.617 248.092,269.281 248.092,269.281C248.092,269.281 245.901,271.09 244.78,271.962C242.769,273.526 240.504,274.393 238.157,275.274C237.863,275.384 234.372,276.719 234.372,276.062" style="fill:none;stroke:black;stroke-width:1px;"/>
                    <path d="M256.898,233.624C257.009,232.28 255.924,236.324 254.715,236.324" style="fill:none;stroke:black;stroke-width:1px;"/>
                    <path d="M258.318,234.609C258.411,233.294 258.017,237.901 255.976,237.901" style="fill:none;stroke:black;stroke-width:1px;"/>
                    <path d="M260.842,235.279C261.759,234.263 258.828,237.888 258.184,238.532C258.048,238.667 256.765,239.526 256.765,239.005" style="fill:none;stroke:black;stroke-width:1px;"/>
                    <path d="M262.788,236.743C262.961,236.385 259.517,240.037 258.341,241.212" style="fill:none;stroke:black;stroke-width:1px;"/>
                    <path d="M264.162,239.256C264.199,238.611 262.155,241.183 261.495,241.843" style="fill:none;stroke:black;stroke-width:1px;"/>
                    <path d="M264.918,241.262C263.864,240.793 262.757,242.946 262.126,243.578" style="fill:none;stroke:black;stroke-width:1px;"/>
                    <path d="M268.737,241.345C269.822,239.488 266.328,245.155 264.176,245.155" style="fill:none;stroke:black;stroke-width:1px;"/>
                    <path d="M270.512,241.957C270.425,241.121 269.905,243.026 269.537,243.578C268.681,244.862 267.656,246.157 266.384,247.047C265.447,247.702 264.477,248.036 263.388,248.309C263.241,248.345 262.095,248.466 262.441,248.466" style="fill:none;stroke:black;stroke-width:1px;"/>
                    <path d="M270.801,246.037C270.8,245.961 264.792,249.667 263.545,250.201C262.922,250.468 259.763,251.778 260.234,251.778" style="fill:none;stroke:black;stroke-width:1px;"/>
                    <path d="M272.786,246.559C274.996,244.803 269.773,249.419 269.222,249.885C265.961,252.645 261.491,255.562 257.08,255.562" style="fill:none;stroke:black;stroke-width:1px;"/>
                    <path d="M276.612,248.649C279.45,247.169 271.584,252.238 270.799,252.724C266.692,255.266 261.832,257.928 256.922,257.928" style="fill:none;stroke:black;stroke-width:1px;"/>
                    <path d="M273.582,253.527C275.062,252.211 271.417,255.267 270.957,255.562C268.232,257.314 265.245,258.903 262.126,259.82C261.02,260.145 259.947,260.42 258.815,260.608C258.551,260.652 256.807,260.924 257.08,260.924" style="fill:none;stroke:black;stroke-width:1px;"/>
                    <path d="M273.056,256.789C273.11,256.649 273.575,256.068 273.637,256.193C273.952,256.823 272.073,257.876 271.745,258.085C269.136,259.746 266.478,261.308 263.545,262.343C262.801,262.606 259.13,264.117 259.13,262.658" style="fill:none;stroke:black;stroke-width:1px;"/>
                    <path d="M275.291,260.012C275.056,258.939 273.245,260.636 272.849,260.924C270.175,262.868 267.26,264.894 264.176,266.128C263.097,266.559 261.831,266.894 260.707,267.231C260.638,267.252 259.165,267.547 259.603,267.547" style="fill:none;stroke:black;stroke-width:1px;"/>
                    <path d="M269.342,264.827C269.54,264.211 268.45,265.579 267.961,265.97C266.877,266.837 265.655,267.437 264.491,268.178C260.753,270.556 256.59,271.174 252.191,271.174" style="fill:none;stroke:black;stroke-width:1px;"/>
                    <path d="M263.997,270.937C264.034,270.921 258.767,272.931 257.08,273.381C254.519,274.064 252.157,274.327 249.511,274.327C249.085,274.327 244.938,274.154 244.938,274.485" style="fill:none;stroke:black;stroke-width:1px;"/>
                    <path d="M256.238,265.255C256.242,264.498 255.138,266.321 254.978,266.521C253.968,267.783 252.808,268.917 251.736,270.123C249.086,273.104 245.578,277.729 241.651,279.038" style="fill:none;stroke:black;stroke-width:1px;"/>
                    <path d="M248.974,270.801C249.166,270.626 249.745,270.213 249.485,270.213C249.138,270.213 247.504,272.554 247.234,272.824C245.69,274.368 244.007,275.756 242.191,276.967C241.962,277.119 240.928,277.957 240.75,277.957" style="fill:none;stroke:black;stroke-width:1px;"/>
                    <path d="M255.63,268.328C255.904,268.162 256.419,267.462 256.419,267.782C256.419,268.51 254.291,270.405 253.807,270.933C251.309,273.659 248.684,276.277 245.883,278.678C245.037,279.403 243.501,281.289 242.281,281.289" style="fill:none;stroke:black;stroke-width:1px;"/>
                    <path d="M257.357,270.849C258.194,270.816 255.638,272.885 254.978,273.545C253.203,275.32 251.275,277.325 249.215,278.768C248.421,279.323 247.61,279.893 246.784,280.389C246.66,280.463 245.738,280.839 245.883,280.839" style="fill:none;stroke:black;stroke-width:1px;"/>
                    <path d="M261.103,269.712C261.403,269.272 260.257,270.589 260.111,270.753C259.205,271.772 258.28,272.764 257.319,273.725C255.501,275.544 253.494,277.555 251.376,279.038C250.939,279.344 248.675,280.116 248.675,280.749" style="fill:none;stroke:black;stroke-width:1px;"/>
                    <path d="M263.832,271.983C262.74,272.266 261.853,273.683 260.921,274.445C259.525,275.588 258.04,276.696 256.599,277.777C252.499,280.852 247.597,282.005 244.892,286.062C243.651,287.924 241.241,289.251 239.49,290.564C238.93,290.984 238.205,291.341 237.599,291.645C237.442,291.723 236.544,292.275 236.698,292.275" style="fill:none;stroke:black;stroke-width:1px;"/>
                    <path d="M243.824,284.494C244.823,283.589 243.846,284.882 242.821,285.701C240.682,287.413 238.576,289.299 236.518,291.014C236.005,291.442 233.546,292.292 233.546,293.085" style="fill:none;stroke:black;stroke-width:1px;"/>
                    <path d="M242.049,283.18C242.128,283.158 243.125,282.763 243.001,282.64C242.908,282.546 242.353,283.198 242.281,283.27C241.444,284.107 240.492,284.851 239.58,285.611C237.503,287.342 234.846,289.657 232.106,290.114C231.547,290.207 229.022,291.847 229.134,291.735" style="fill:none;stroke:black;stroke-width:1px;"/>
                    <path d="M238.756,281.734C238.928,281.743 239.503,281.302 239.67,281.469C239.813,281.612 237.705,283.703 237.689,283.72C236.011,285.398 234.061,286.28 232.106,287.502C231.705,287.753 230.975,288.403 230.485,288.403" style="fill:none;stroke:black;stroke-width:1px;"/>
                    <path d="M234.999,281.793C235.103,281.723 235.617,281.499 235.617,281.289C235.617,281.224 235.176,281.731 235.167,281.739C234.937,281.97 234.77,282.227 234.537,282.46C233.88,283.116 232.35,284.261 231.385,284.261" style="fill:none;stroke:black;stroke-width:1px;"/>
                    <path d="M259.647,278.078C259.693,277.67 258.355,278.783 258.22,278.858C257.234,279.405 256.286,280.017 255.248,280.479C253.55,281.233 249.735,283.04 248.855,284.801C247.883,286.744 246.228,288.594 244.442,289.934C243.33,290.768 242.172,291.507 241.02,292.275C240.739,292.463 239.294,293.363 239.67,293.175" style="fill:none;stroke:black;stroke-width:1px;"/>
                    <path d="M261.295,279.058C261.411,279.028 261.684,278.72 261.642,278.678C261.489,278.526 260.078,279.756 259.931,279.848C258.351,280.835 256.583,281.63 255.068,282.64C253.901,283.418 251.983,283.935 251.106,285.251C249.421,287.779 247.469,290.377 244.892,292.095C243.796,292.826 242.714,293.507 241.561,294.166C241.396,294.26 240.57,294.584 240.57,294.796" style="fill:none;stroke:black;stroke-width:1px;"/>
                    <path d="M261.471,281.328C261.548,281.291 261.992,281.099 261.912,281.019C261.751,280.859 260.577,282.02 260.471,282.099C258.974,283.222 257.273,284.599 255.608,285.431C254.074,286.199 252.643,286.776 251.646,287.773C250.941,288.478 250.565,290.114 249.665,291.014C248.883,291.796 247.959,292.27 247.234,292.995C246.695,293.534 243.632,294.88 243.632,295.517" style="fill:none;stroke:black;stroke-width:1px;"/>
                    <path d="M264.763,281.807C264.675,281.84 264.725,281.829 264.613,281.829" style="fill:none;stroke:black;stroke-width:1px;"/>
                    <path d="M264.512,281.807C264.521,281.754 264.128,282.224 263.983,282.37C263.563,282.789 263.191,283.266 262.812,283.72C261.62,285.151 259.967,286.202 258.4,287.142C256.524,288.268 253.579,289.172 252.096,290.654C251.044,291.707 249.98,293.401 248.675,294.706C247.543,295.838 245.567,296.193 244.442,297.318" style="fill:none;stroke:black;stroke-width:1px;"/>
                    <path d="M269.309,282.631C269.589,282.333 267.333,283.87 266.864,284.261C265.174,285.669 263.334,287.151 261.371,288.133C259.472,289.082 257.233,290.02 255.698,291.555C255.362,291.891 254.573,292.184 254.348,292.635C253.868,293.594 253.495,294.388 252.637,295.247C250.924,296.959 247.833,296.898 246.063,298.668" style="fill:none;stroke:black;stroke-width:1px;"/>
                    <path d="M265.443,288.152C264.288,292.421 257.432,293.611 254.168,295.787C252.872,296.65 251.907,297.864 250.566,298.668C250.107,298.944 249.679,299.2 249.215,299.479C249.042,299.583 248.473,299.749 248.675,299.749C248.822,299.749 249.086,299.428 249.125,299.389" style="fill:none;stroke:black;stroke-width:1px;"/>
                    <path d="M265.6,291.414C266.804,291.155 265.301,292.362 264.973,292.635C263.831,293.587 262.611,294.492 261.281,295.157C258.357,296.619 255.692,298.077 252.637,299.299C251.722,299.665 250.771,300.289 249.755,300.289" style="fill:none;stroke:black;stroke-width:1px;"/>
                    <path d="M269.2,292.514C270.532,291.689 267.602,293.743 267.225,293.986C266.943,294.167 263.803,295.593 263.803,295.697" style="fill:none;stroke:black;stroke-width:1px;"/>
                    <path d="M274.054,291.664C274.537,291.573 273.468,292.772 273.348,292.905C272.592,293.746 271.793,294.722 270.827,295.337C270.383,295.619 269.33,295.663 269.026,295.967" style="fill:none;stroke:black;stroke-width:1px;"/>
                    <path d="M276.438,291.83C276.449,291.829 275.547,292.688 275.239,292.995C274.321,293.913 273.341,294.755 272.177,295.337C271.972,295.439 270.83,295.967 270.917,295.967" style="fill:none;stroke:black;stroke-width:1px;"/>
                    <path d="M278.217,291.723C278.322,291.624 277.753,292.667 277.58,292.905C276.861,293.894 275.846,294.773 274.879,295.517C274.785,295.589 273.392,296.553 273.798,296.147" style="fill:none;stroke:black;stroke-width:1px;"/>
                    <path d="M280.875,292.846C280.108,292.744 279.615,294.06 279.201,294.526C278.388,295.441 277.252,295.935 276.41,296.777" style="fill:none;stroke:black;stroke-width:1px;"/>
                    <path d="M282.376,293.409C282.785,292.526 281.019,295.049 280.462,295.607C280.396,295.673 279.147,296.687 279.381,296.687" style="fill:none;stroke:black;stroke-width:1px;"/>
                    <path d="M284.989,293.899C285.588,293.54 282.565,296.475 281.993,297.048" style="fill:none;stroke:black;stroke-width:1px;"/>
                    <path d="M286.633,295.083C288.272,294.874 284.334,297.149 284.334,297.678" style="fill:none;stroke:black;stroke-width:1px;"/>
                    <path d="M288.687,296.049C289.477,296.093 287.866,297.028 287.215,297.678" style="fill:none;stroke:black;stroke-width:1px;"/>
                    <path d="M276.464,280.6C276.653,280.494 277.193,280.145 277.04,280.299C275.53,281.808 272.921,283.457 271.007,284.351C270.068,284.789 268.698,285.219 267.945,285.972" style="fill:none;stroke:black;stroke-width:1px;"/>
                    <path d="M280.041,282.51C280.111,282.556 280.5,282.407 280.462,282.37C280.394,282.302 279.178,282.786 279.111,282.82C277.4,283.675 275.737,284.526 274.158,285.611C273.843,285.828 271.536,287.592 271.907,287.592" style="fill:none;stroke:black;stroke-width:1px;"/>
                    <path d="M287.921,283.217C287.93,283.14 284.784,284.279 284.784,284.711" style="fill:none;stroke:black;stroke-width:1px;"/>
                    <path d="M284.572,273.739C284.616,273.595 283.588,275.281 283.343,275.526" style="fill:none;stroke:black;stroke-width:1px;"/>
                    <path d="M287.444,273.047C287.657,273.292 286.472,274.57 286.315,274.806" style="fill:none;stroke:black;stroke-width:1px;"/>
                    <path d="M291.727,271.505C290.681,272.126 289.385,273.986 288.386,274.986" style="fill:none;stroke:black;stroke-width:1px;"/>
                    <path d="M296.104,270.68C296.292,270.583 296.671,270.182 296.671,270.393C296.671,270.633 295.845,271.309 295.68,271.474C294.781,272.372 294.231,273.553 293.339,274.445C293.179,274.606 292.494,275.346 292.258,275.346" style="fill:none;stroke:black;stroke-width:1px;"/>
                    <path d="M299.167,271.457C297.554,271.873 296.486,274.357 294.87,275.166" style="fill:none;stroke:black;stroke-width:1px;"/>
                    <path d="M305.26,258.982C304.997,258.929 306.355,259.001 306.846,258.867C308,258.552 309.327,258.089 310.268,257.336C310.458,257.184 310.767,256.616 310.358,256.616" style="fill:none;stroke:black;stroke-width:1px;"/>
                    <path d="M305.823,261.695C304.967,262.005 307.182,261.544 307.476,261.478C308.694,261.208 309.845,260.773 310.808,259.947C311.129,259.672 312.964,257.521 312.249,258.237" style="fill:none;stroke:black;stroke-width:1px;"/>
                    <path d="M303.698,264.765C303.679,264.988 303.044,265.16 303.244,265.26C304.801,266.039 308.833,264.264 309.908,263.189C310.271,262.826 312.608,261.118 311.799,261.118" style="fill:none;stroke:black;stroke-width:1px;"/>
                    <path d="M298.702,268.015C297.226,268.4 301.601,267.936 301.983,267.872C304.765,267.408 306.858,266.604 309.277,265.26C309.63,265.065 311.529,264.378 311.529,263.82C311.529,263.548 310.961,263.788 310.718,263.91" style="fill:none;stroke:black;stroke-width:1px;"/>
                    <path d="M297.846,270.216C297.123,270.205 300.288,270.47 300.903,270.393C302.853,270.149 304.864,269.753 306.666,268.952C307.084,268.767 309.793,266.984 308.737,267.512" style="fill:none;stroke:black;stroke-width:1px;"/>
                    <path d="M301.063,272.892C301.133,273.291 303.252,272.772 303.514,272.734C305,272.522 306.515,272.229 307.837,271.474C308.723,270.967 309.033,269.891 308.827,270.303" style="fill:none;stroke:black;stroke-width:1px;"/>
                    <path d="M300.384,275.568C300.208,275.502 299.635,275.526 299.822,275.526C301.892,275.526 304.542,275.192 306.396,274.265C306.824,274.051 308.767,272.644 308.557,272.644" style="fill:none;stroke:black;stroke-width:1px;"/>
                    <path d="M302.985,272.76C302.897,271.845 302.182,272.918 301.983,273.365C301.347,274.797 300.967,276.272 299.822,277.417C298.616,278.623 297.043,280.291 295.59,281.199C294.309,281.999 292.701,282.737 291.628,283.81" style="fill:none;stroke:black;stroke-width:1px;"/>
                    <path d="M297.617,282.069C299.149,280.364 296.162,283.77 295.59,284.171C295.258,284.403 293.339,285.161 293.339,285.521" style="fill:none;stroke:black;stroke-width:1px;"/>
                    <path d="M301.337,282.797C301.662,282.685 302.113,282.472 302.254,282.19C302.27,282.157 302.677,281.919 302.614,281.919C302.469,281.919 302.105,282.453 301.983,282.55C300.998,283.338 300.072,284.184 299.012,284.891C298.616,285.155 296.755,286.068 296.761,286.062" style="fill:none;stroke:black;stroke-width:1px;"/>
                    <path d="M306.037,282.19C306.522,281.702 305.921,282.124 305.495,282.55C304.505,283.54 303.332,284.532 302.073,285.161C301.499,285.448 300.466,285.508 300.002,285.972" style="fill:none;stroke:black;stroke-width:1px;"/>
                    <path d="M311.75,277.302C311.751,277.302 311.394,277.489 311.258,277.597C310.963,277.834 310.606,278.058 310.268,278.227" style="fill:none;stroke:black;stroke-width:1px;"/>
                    <path d="M325.058,273.489C324.987,273.087 321.906,275.45 320.984,275.796C319.773,276.25 318.526,276.36 317.292,276.607C316.846,276.696 315.727,276.37 315.401,276.697C314.833,277.264 314.75,278.247 314.05,278.948C312.896,280.102 310.063,281.469 308.377,281.469" style="fill:none;stroke:black;stroke-width:1px;"/>
                    <path d="M321.814,272.867C321.797,272.754 320.83,273.645 320.353,273.905C319.432,274.408 318.426,274.488 317.472,274.806" style="fill:none;stroke:black;stroke-width:1px;"/>
                    <path d="M325.583,273.897C325.549,273.501 324.705,275.007 324.586,275.166C323.871,276.119 322.493,277.007 321.344,277.237C320.467,277.412 318.668,277.764 317.922,278.137C317.521,278.338 316.535,277.993 316.211,278.317C315.842,278.687 316.329,279.821 315.761,280.389C314.098,282.052 310.816,283.54 308.557,283.54" style="fill:none;stroke:black;stroke-width:1px;"/>
                    <path d="M324.412,278.053C325.351,276.978 321.952,279.61 321.254,280.028C319.783,280.911 316.691,279.999 315.581,281.109" style="fill:none;stroke:black;stroke-width:1px;"/>
                    <path d="M323.733,280.754C323.948,280.749 324.316,280.479 324.316,280.479C324.316,280.479 323.678,281.563 323.145,281.829C322.199,282.302 321.216,282.556 320.173,282.73C318.852,282.95 317.503,282.91 316.121,282.91C315.754,282.91 315.125,282.508 314.68,282.73C314.423,282.858 314.496,284.265 314.14,284.621C313.819,284.942 311.619,285.298 311.619,285.431" style="fill:none;stroke:black;stroke-width:1px;"/>
                    <path d="M324.784,281.877C324.935,281.776 322.72,283.742 321.704,284.081C319.714,284.744 317.814,284.58 315.851,285.071C315.245,285.223 314.14,285.62 314.14,286.332" style="fill:none;stroke:black;stroke-width:1px;"/>
                    <path d="M326.942,282.631C327.126,282.641 327.597,282.329 327.467,282.46C326.166,283.761 325.355,284.951 323.505,285.611C323.14,285.742 321.265,286.062 321.524,286.062" style="fill:none;stroke:black;stroke-width:1px;"/>
                    <path d="M330.411,283.743C330.529,283.63 331.159,283.252 331.159,283.09C331.159,283.054 330.623,283.448 330.619,283.45C330.067,283.766 329.549,284.12 328.998,284.441C327.673,285.214 326.455,285.904 325.036,286.512C324.5,286.741 324.04,286.784 323.505,286.962C323.353,287.013 322.657,287.232 322.785,287.232" style="fill:none;stroke:black;stroke-width:1px;"/>
                    <path d="M331.999,284.171C332.205,283.866 330.751,285.499 330.349,285.791C329.086,286.71 326.469,288.493 324.856,288.493" style="fill:none;stroke:black;stroke-width:1px;"/>
                    <path d="M337.318,284.064C336.533,284.169 335.665,285.346 334.941,285.791C333.564,286.639 332.113,287.277 330.709,288.043C330.201,288.32 329.112,288.469 328.728,288.853" style="fill:none;stroke:black;stroke-width:1px;"/>
                    <path d="M339.938,285.426C339.977,285.353 340.321,284.867 340.434,284.981C340.758,285.304 337.994,287.316 337.823,287.412C336.452,288.183 335.143,288.741 333.681,289.303C333.47,289.384 332.33,289.801 332.33,290.024" style="fill:none;stroke:black;stroke-width:1px;"/>
                    <path d="M343.088,286.084C342.926,285.65 341.368,287.65 341.155,287.863C340.169,288.849 338.302,289.483 336.922,289.483" style="fill:none;stroke:black;stroke-width:1px;"/>
                    <path d="M346.339,286.94C346.486,286.508 347.461,286.237 347.368,286.377C346.731,287.332 345.079,288.292 344.126,288.898C343.57,289.252 342.415,289.889 342.415,289.889C342.415,289.889 342.655,289.769 342.776,289.709" style="fill:none;stroke:black;stroke-width:1px;"/>
                    <path d="M348.404,287.978C348.643,287.999 349.319,287.728 349.079,287.728C348.932,287.728 348.312,288.424 348.178,288.538C347.428,289.182 346.33,289.486 345.657,290.159" style="fill:none;stroke:black;stroke-width:1px;"/>
                    <path d="M356.272,285.051C356.956,284.961 353.835,287.818 353.131,287.818" style="fill:none;stroke:black;stroke-width:1px;"/>
                    <path d="M359.279,286.27C359.225,286.108 357.847,287.514 357.724,287.637C357.212,288.149 356.155,288.216 355.743,288.628" style="fill:none;stroke:black;stroke-width:1px;"/>
                    <path d="M363.333,287.058C363.695,286.77 362.487,288.004 362.226,288.178C361.745,288.498 358.984,289.953 358.984,290.249" style="fill:none;stroke:black;stroke-width:1px;"/>
                    <path d="M367.079,287.274C367.107,287.015 363.641,289.799 362.946,289.799" style="fill:none;stroke:black;stroke-width:1px;"/>
                    <path d="M370.57,287.393C369.465,287.206 367.293,289.154 366.368,289.709" style="fill:none;stroke:black;stroke-width:1px;"/>
                    <path d="M373.709,288.181C372.366,288.099 371.48,290.249 370.15,290.249" style="fill:none;stroke:black;stroke-width:1px;"/>
                    <path d="M377.335,288.158C377.462,288.883 375.562,289.43 374.923,290.069" style="fill:none;stroke:black;stroke-width:1px;"/>
                    <path d="M380.995,288.611C380.568,288.966 379.545,289.979 378.975,289.979" style="fill:none;stroke:black;stroke-width:1px;"/>
                    <path d="M385.132,288.766C384.128,289.109 383.323,289.91 382.307,290.249" style="fill:none;stroke:black;stroke-width:1px;"/>
                    <path d="M388.567,289.222C388.206,289.507 386.875,290.126 386.269,290.429" style="fill:none;stroke:black;stroke-width:1px;"/>
                    <path d="M390.582,289.771C391.012,289.112 390.138,290.161 389.781,290.429" style="fill:none;stroke:black;stroke-width:1px;"/>
                </g>
            </g>
        </g>
    </g>
</svg>
