<svg xmlns="http://www.w3.org/2000/svg" xml:space="preserve" style="stroke:currentColor;fill:currentColor;fill-rule:evenodd;clip-rule:evenodd;stroke-linecap:round;stroke-linejoin:round;stroke-miterlimit:.726744" viewBox="0 0 186 178">
  <g transform="translate(-57 -50)">
    <g id="closed">
      <g id="burst-lower">
        <path d="M149.87 169.91a.555.555 0 0 1 1.053-.345l.087 2.105c.211.768.338 1.553.424 2.356.312 2.931-.075 6.028.528 8.877.208 1.05.351 2.106.427 3.174.165 2.31.07 4.644.388 6.928.25 1.855.408 3.723.576 5.596.166 1.857.331 3.714.456 5.582.248 3.695.406 7.396.574 11.093a2.5 2.5 0 0 1-5 0c.195-4.39.478-8.786.448-13.176a88.593 88.593 0 0 0-.497-8.665 32.337 32.337 0 0 1-.216-3.193c-.022-.95-.03-1.903-.018-2.855.016-1.36.07-2.715-.054-4.068-.227-3.02.56-6.164.66-9.229.023-.724.015-1.436-.075-2.145a2.481 2.481 0 0 1-.007-.576c.057-.524.314-1.185.246-1.46Zm-21.519 18.666c.023.013.05.026.08.04.238.107.382-.2.475-.647.115-.079.24-.145.373-.195-.118.034-.24.073-.358.118.142-.748.154-1.815.225-2.01.49-1.509 1.022-2.992 1.435-4.534.185-.692.33-1.396.474-2.104.337-1.645.628-3.304 1.047-4.993l1.35-3.386c.073-.232.34-1.237.487-1.622.593-1.542 1.884-.855 2.012-.262a1 1 0 0 1-.003.717c-.112-.007-.157.11-.166.281a1 1 0 0 1-.469.314.677.677 0 0 0 .468-.306c-.018.412.166 1.135.163 1.293a11.294 11.294 0 0 1-.308 2.113c-.15.63-.373 1.241-.549 1.853-.77 1.846-1.506 3.638-2.023 5.491a27.137 27.137 0 0 0-.514 2.31c-.223 1.181-.373 2.36-.572 3.543-.055.382-.007 2.414-.199 3.184-.309 1.236-1.349 1.437-1.86 1.474a1.797 1.797 0 0 1-1.568-2.672Zm7.448-18.618-.018.03.001-.009a.313.313 0 0 0 .017-.02Zm0 0a.79.79 0 0 0 .046-.092c.004-.009.023-.026.046-.047a.984.984 0 0 1-.092.14Zm.15-.26h.002c.07.006-.005.072-.06.121.022-.039.04-.08.057-.12Zm-7.598 18.878c-.37-.22.06-.493.57-.684l-.015.077a1.814 1.814 0 0 0-.555.607Zm6.51-18.248a.978.978 0 0 1-.328-.11.662.662 0 0 0 .328.11Zm-5.038 17.331Zm-28.832 13.043-.002-.038v.04c-.258.286-.388.544-.145.684.012.006.023.012.034.016a2.5 2.5 0 0 1-4.889-.74c.005-.459.141-1.13.575-1.834.4-.648 1.2-1.513 1.541-2.006l4.724-6.53a523.132 523.132 0 0 1 4.66-6.5c1.555-2.13 3.162-4.22 4.612-6.423a71.413 71.413 0 0 0 3.41-5.783c.467-.892 1.028-1.846 1.724-2.738.932-1.196 2.038-2.268 2.828-3.464.343-.519.65-1.014.858-1.548a.586.586 0 0 1 1.14.265c-.11 1.277-.586 2.576-1.19 3.914a30.855 30.855 0 0 1-1.306 2.611c-.462.813-.977 1.565-1.337 2.318-.678 1.395-1.432 2.751-2.163 4.12-1.092 2.045-2.155 4.1-3.34 6.094-1.956 3.288-4.079 6.465-6.078 9.68l-4.466 6.701c-.172.27-.816.745-1.19 1.161Zm0 0c.013.211.102.778-.113.702a2.53 2.53 0 0 0 .113-.702Zm10.033-44.844a.165.165 0 0 1-.028.075c-.19.294-.591.965-.82 1.282-.301.416-.614.802-.956 1.191-.502.573-1.037 1.088-1.577 1.62-.872.766-1.808 1.852-2.899 2.955-.977.989-2.02 2.033-3.126 2.93-.465.378-.948.71-1.436 1.014-1.364.852-2.66 1.47-3.822 1.822a.71.71 0 0 1-.628-1.274c1.118-.783 2.16-2.136 3.47-3.468.772-.785 1.636-1.53 2.472-2.27a42.053 42.053 0 0 1 2.204-1.825 25.86 25.86 0 0 1 2.442-1.673l3.067-1.823c.306-.215.88-.699 1.145-.904.32-.25.616-.023.621.016a.286.286 0 0 1-.129.332Zm-10.872-5.532a.555.555 0 0 1 1.104.092c-.009.39-.226.69-.549.945-.359.285-.94.471-1.329.725-1.144.748-2.266 1.541-3.423 2.286a30.14 30.14 0 0 1-2.445 1.43c-2.53 1.312-5.069 2.688-7.547 4.161-2.467 1.466-4.84 3.026-7.058 4.706-1.05.795-2.562 1.453-3.809 2.23a3.843 3.843 0 0 0-.847.701 2.503 2.503 0 0 1-3.536 0 2.503 2.503 0 0 1 0-3.536 8.77 8.77 0 0 1 2.104-1.37c1.217-.569 2.676-.974 3.717-1.58a75.703 75.703 0 0 1 6.338-3.29c3.192-1.477 6.484-2.794 9.752-4.017a28.585 28.585 0 0 0 2.423-1.05c1.232-.599 2.436-1.249 3.656-1.852l1.45-.58Zm62.428 18.722a.784.784 0 0 1 1.287-.89c.435.477.795 1.267 1.121 2.151.404 1.097.68 2.324.891 3.136.215.972.56 1.917.861 2.892.31 1.003.616 2.014.877 3.028a30.8 30.8 0 0 1 .558 2.77c.192 1.411.182 3.107.378 4.643.078.611.16 1.19.353 1.698a.95.95 0 1 1-1.698.85c-.374-.595-.648-1.296-.89-2.053-.466-1.46-.716-3.126-1.136-4.472-.236-.836-.545-1.662-.812-2.514a36.278 36.278 0 0 1-.748-2.646 24.125 24.125 0 0 1-.554-3.795c-.023-.786-.032-1.963-.149-3.053-.073-.686-.125-1.323-.34-1.745Zm14.164-4.298a.554.554 0 0 1 .732-.83c.448.338.805.748 1.131 1.19.671.91 1.135 1.983 1.81 2.902a29.862 29.862 0 0 1 1.555 2.398c1.08 1.832 2.016 3.742 3.181 5.532 2.612 4.292 5.671 8.251 8.501 12.4a100.538 100.538 0 0 1 2.104 3.22c.955 1.531 1.911 3.258 2.992 4.852.656.967 1.363 1.88 2.155 2.648a2.137 2.137 0 0 1-3.02 3.021c-.963-.995-1.824-2.159-2.606-3.399-1.056-1.676-1.98-3.483-2.907-5.09-2.184-3.825-4.673-7.429-6.955-11.168a88.69 88.69 0 0 1-2.842-5.01l-3.718-8.43c-.536-1.019-.84-2.16-1.374-3.17-.203-.383-.429-.748-.739-1.066Zm50.717.61a1.518 1.518 0 0 1-.312 3.002 2.347 2.347 0 0 1-1.07-.3c-.428-.24-.953-.738-1.32-.94-1.097-.6-2.234-1.284-3.383-1.908a29.442 29.442 0 0 0-1.42-.73 26.064 26.064 0 0 1-2.88-1.609c-1.333-.849-2.618-1.78-3.937-2.673a50.009 50.009 0 0 0-2.454-1.56c-1.98-1.179-4.015-2.26-5.953-3.535-.935-.63-1.85-1.24-2.747-1.882a48.946 48.946 0 0 1-2.658-2.035c-.32-.265-.919-.433-1.232-.683-.179-.142-.299-.302-.333-.487a.335.335 0 1 1 .654-.153l1.415.651c.735.502 1.472.965 2.213 1.42 1.12.687 2.246 1.344 3.41 2.015.837.5 1.687.968 2.547 1.418 2.05 1.074 4.136 2.058 6.14 3.23 1.361.784 2.692 1.61 4.064 2.35.883.476 1.783.91 2.72 1.271a32.26 32.26 0 0 1 1.598.674c1.195.536 2.383 1.132 3.524 1.65.377.171 1.558.384 1.414.814Zm-.307-.033h-.005.005Z"/>
        <path d="M210.671 85.349c.091-.258.327-.425.552-.594m-40.15-23.606c-.134-.124-.088-.271-.088-.451m-41.995.072c-.292 0-.236-.426-.338-.63M89.301 85.245c-.185.027-.208-.012-.338-.142" style="stroke-width:3.03px" transform="rotate(-180 149.666 129.933)"/>
        <path d="M188.303 156.614a.57.57 0 1 1 .317-1.094c.882.021 1.768.435 2.734 1.013 1.147.686 2.17 1.65 3.05 2.254.354.362.736.715 1.077 1.117.752.886 1.337 1.927 2.148 2.83.274.304.573.591.893.85.956.775 2.012 1.351 3.087 1.873.696.338 1.4.514 2.121.714a2.501 2.501 0 0 1-2.237 4.472c-1.568-1.162-2.878-2.602-4.26-4.145-.526-.586-1.06-1.17-1.642-1.703-.91-.834-1.95-1.46-2.829-2.253-.377-.34-.709-.715-1.057-1.057-.328-.439-.705-.94-1.059-1.523-.438-.72-.798-1.479-1.28-2.14-.362-.498-.635-.95-1.063-1.208Z"/>
      </g>
      <g id="eyelid-closed">
        <path d="M191.759 137.332a1.053 1.053 0 0 1 1.189 1.313.992.992 0 0 1-.549.667c-.042.022-.141.07-.308.098a2.916 2.916 0 0 1-.155.019c-.144.015-.444.046-.86.106-1.633.239-5.094.946-7.771 3.143-9.662 7.932-13.643 12.247-18.041 14.648-3.717 2.03-7.726 2.759-15.527 3.058-6.566.184-11.082-.583-15.232-2.264-5.625-2.278-10.56-6.275-19.245-11.899-2.315-1.501-3.381-2.796-4.981-3.566-.89-.429-1.963-.667-3.587-.681a1.125 1.125 0 0 1 0-2.248c2.069-.018 3.433.303 4.576.83 1.688.777 2.846 2.087 5.296 3.616 8.576 5.358 13.454 9.188 18.975 11.356 3.856 1.514 8.035 2.19 14.11 1.988 7.195-.165 10.915-.695 14.37-2.512 4.343-2.283 8.281-6.476 17.863-14.087 2.192-1.741 4.807-2.648 6.819-3.107a21.994 21.994 0 0 1 3.058-.478Z"/>
        <path d="M187.701 137.939a1.053 1.053 0 0 1 .651 2c-2.035.682-4.207 1.602-6.443 2.684-3.031 1.466-6.175 3.23-9.249 5.108-3.901 2.384-6.804 4.715-11.142 6.243-3.19 1.123-7.147 1.818-12.82 1.763-5.999-.118-9.911-.772-12.979-1.725-4.396-1.366-7.021-3.346-11.736-5.175-3.273-1.275-6.603-3.725-10.33-5.296-2.155-.908-4.45-1.514-6.97-1.319a1.124 1.124 0 0 1-.195-2.239c2.174-.21 4.214.088 6.156.669 4.508 1.349 8.44 4.332 12.265 5.739 4.672 1.726 7.292 3.618 11.634 4.922 2.893.869 6.568 1.473 12.207 1.568 5.257.142 8.939-.413 11.914-1.403 4.178-1.39 6.98-3.603 10.755-5.819 3.172-1.863 6.415-3.607 9.537-5.05 2.344-1.084 4.618-1.999 6.745-2.67Z"/>
        <path d="M190.625 135.785c.16.016 1.249.125 1.629.292.614.27.928.724.923 1.345a1.124 1.124 0 0 1-1.993.712c-.188-.017-.477-.042-.658-.061a2.658 2.658 0 0 1-.875-.221c-.537-.262-1.275-.709-2.034-1.197-1.081-.696-2.207-1.479-2.799-1.888l-8.679-5.77c-2.847-1.885-6.591-4.204-11.332-5.921a39.854 39.854 0 0 0-12.408-2.387c-5.994-.259-11.165.293-15.978 1.5-5.218 1.309-10.019 3.381-14.987 6.027-1.676.893-3.269 1.96-4.773 3.122a53.277 53.277 0 0 0-4.361 3.797 57.71 57.71 0 0 0-3.304 3.463c-.848.974-1.555 1.796-1.663 2.209a1.053 1.053 0 0 1-2.039-.519c.116-.469.684-1.387 1.531-2.443 1.095-1.365 2.649-3.049 3.914-4.306a55.693 55.693 0 0 1 4.486-4.03c1.59-1.269 3.277-2.435 5.055-3.419 5.116-2.831 10.07-5.061 15.47-6.499 5.035-1.341 10.458-1.988 16.756-1.797a42.333 42.333 0 0 1 13.259 2.69c4.953 1.866 8.846 4.365 11.803 6.392l8.618 5.945c.572.409 1.659 1.194 2.705 1.893.642.429 1.267.828 1.734 1.071Z"/>
      </g>
    </g>
    <g id="open">
      <g id="retina">
        <path d="M132.552 132.993c-.068.088-.229.298-.329.445-.269.392-.534.784-.73.985-.656.672-.848 1.72-.88 2.831-.055 1.862.444 3.925.92 5.296.879 2.537 2.454 4.466 4.39 5.966 2.024 1.569 4.447 2.666 6.934 3.471 1.106.369 2.471.8 3.816.986.786.109 1.563.145 2.261-.023 3.341-.795 6.423-1.911 9.161-3.564a22.42 22.42 0 0 0 7.037-6.648 9.772 9.772 0 0 0 1.404-3.081c.291-1.112.409-2.272.423-3.492.005-.455.042-.975.005-1.46-.018-.225-.041-.443-.127-.621-.128-.264-.249-1.075-.257-1.392-.012-.437.164-.691.197-.735a1.01 1.01 0 0 1 .741-.437c.222-.022.464.007.703.172.073.049.334.192.441.631.029.115.039.231.03.343l.077.524c.144.3.239.641.297 1.005.102.634.073 1.355.08 1.97.016 1.409-.097 2.751-.404 4.043a12.085 12.085 0 0 1-1.646 3.84 24.867 24.867 0 0 1-7.634 7.545c-2.929 1.86-6.238 3.159-9.841 4.104-1.024.265-2.171.28-3.33.13-1.532-.199-3.086-.688-4.345-1.107-2.781-.954-5.481-2.246-7.722-4.057-2.293-1.852-4.12-4.23-5.106-7.308-.515-1.612-1.021-4.032-.904-6.201.094-1.746.593-3.33 1.649-4.36.29-.283.736-1.058 1.132-1.44.405-.391.838-.548 1.181-.544a1.124 1.124 0 0 1 .376 2.183Zm34.345.332a1.045 1.045 0 0 1-.231-.353c.065.17.154.281.231.353Z"/>
        <path d="M129.968 140.844c.257-.591.992-.591 1.768-.977 2.991-1.487 4.15-2.053 6.904-2.972.442-.147 3.768-.428 3.761-.297-.046.881-.034 4.548 1.829 6.598 1.515 1.666 4.275 2.149 4.659 2.131 4.789-.219 6.053-3.286 6.347-6.373.05-.518.719-.843 1.388-.866 2.198-.076 5.168.326 7.024.889.298.091 3.167 1.306 3.43 1.043.695-.695.324-1.471.795-2.447.429-.886-.071-1.277-.126-2.435-.245-5.131-1.205-3.843-5.754-4.63-1.107-.192-5.018-.832-6.172-.832-1.275 0-3.314-.463-4.595-.463-1.555 0-3.703-.067-5.264-.067-1.85 0-4.758.038-6.612.281-1.754.23-5.861.574-7.101 1.814-.41.411-1.815 2.19-1.916 2.757-.552 3.076-.109 6.846-.365 6.846Z"/>
        <path d="M152.348 132.867c-.144-.768-1.349.008-1.79.302-1.654 1.103-3.712 4.684-.817 5.649 2.033.678 4.209-.998 5.037-2.654.994-1.989-1.394-3.969-3.199-3.607" style="fill:#fff" transform="matrix(.88314 0 0 .88813 17.772 16.606)"/>
      </g>
      <g id="eyelid-open">
        <path d="M190.625 135.785c.16.016 1.249.125 1.629.292.614.27.928.724.923 1.345a1.124 1.124 0 0 1-1.993.712c-.188-.017-.477-.042-.658-.061a2.658 2.658 0 0 1-.875-.221c-.537-.262-1.275-.709-2.034-1.197-1.081-.696-2.207-1.479-2.799-1.888l-8.679-5.77c-2.847-1.885-6.591-4.204-11.332-5.921a39.854 39.854 0 0 0-12.408-2.387c-5.994-.259-11.165.293-15.978 1.5-5.218 1.309-10.019 3.381-14.987 6.027-1.676.893-3.269 1.96-4.773 3.122a53.277 53.277 0 0 0-4.361 3.797 57.71 57.71 0 0 0-3.304 3.463c-.848.974-1.555 1.796-1.663 2.209a1.053 1.053 0 0 1-2.039-.519c.116-.469.684-1.387 1.531-2.443 1.095-1.365 2.649-3.049 3.914-4.306a55.693 55.693 0 0 1 4.486-4.03c1.59-1.269 3.277-2.435 5.055-3.419 5.116-2.831 10.07-5.061 15.47-6.499 5.035-1.341 10.458-1.988 16.756-1.797a42.333 42.333 0 0 1 13.259 2.69c4.953 1.866 8.846 4.365 11.803 6.392l8.618 5.945c.572.409 1.659 1.194 2.705 1.893.642.429 1.267.828 1.734 1.071Z"/>
        <path d="M107.541 141.358a1.053 1.053 0 0 1-2.001-.555c.025-.245.177-.644.624-1.051.598-.545 2.043-1.42 3.93-2.384 2.968-1.517 7.062-3.295 10.483-4.416 2.373-.778 7.536-2.77 14.33-4.104 4.419-.868 9.521-1.452 14.994-1.261 5.728.27 10.468.81 14.468 1.499 6.134 1.057 10.53 2.441 14.105 3.591a90.839 90.839 0 0 0 5.233 1.51c2.729.704 5.363 1.275 8.026 1.873a1.124 1.124 0 0 1-.471 2.197c-2.698-.552-5.367-1.078-8.134-1.736a94.246 94.246 0 0 1-5.402-1.448c-3.503-1.06-7.816-2.308-13.808-3.261-3.915-.623-8.546-1.128-14.141-1.346-5.239-.268-10.135.22-14.383.979-6.672 1.194-11.759 3.058-14.095 3.778-1.865.575-3.937 1.347-5.909 2.163-2.732 1.132-5.272 2.348-6.788 3.246-.468.277-.935.629-1.061.726Z"/>
        <path d="M191.759 137.332a1.053 1.053 0 0 1 1.189 1.313.992.992 0 0 1-.549.667c-.042.022-.141.07-.308.098a2.916 2.916 0 0 1-.155.019c-.144.015-.444.046-.86.106-1.633.239-5.094.946-7.771 3.143-9.662 7.932-13.643 12.247-18.041 14.648-3.717 2.03-7.726 2.759-15.527 3.058-6.566.184-11.082-.583-15.232-2.264-5.625-2.278-10.56-6.275-19.245-11.899-2.315-1.501-3.381-2.796-4.981-3.566-.89-.429-1.963-.667-3.587-.681a1.125 1.125 0 0 1 0-2.248c2.069-.018 3.433.303 4.576.83 1.688.777 2.846 2.087 5.296 3.616 8.576 5.358 13.454 9.188 18.975 11.356 3.856 1.514 8.035 2.19 14.11 1.988 7.195-.165 10.915-.695 14.37-2.512 4.343-2.283 8.281-6.476 17.863-14.087 2.192-1.741 4.807-2.648 6.819-3.107a21.994 21.994 0 0 1 3.058-.478Z"/>
      </g>
      <g id="burst-upper">
        <path d="M149.01 109.599a.555.555 0 0 1-1.053.344l-.087-2.105a14.806 14.806 0 0 1-.424-2.356c-.312-2.931.075-6.028-.528-8.877a25.662 25.662 0 0 1-.427-3.174c-.165-2.31-.07-4.644-.388-6.928-.25-1.855-.408-3.723-.576-5.596a250.383 250.383 0 0 1-.456-5.582c-.248-3.695-.406-7.396-.574-11.093a2.5 2.5 0 0 1 5 0c-.195 4.39-.478 8.786-.448 13.176.019 2.905.196 5.796.497 8.665.129 1.057.192 2.123.216 3.193.022.95.03 1.903.018 2.855-.016 1.36-.07 2.715.054 4.068.227 3.02-.56 6.164-.66 9.229-.023.724-.015 1.436.075 2.145.02.166.03.363.007.576-.057.524-.314 1.185-.246 1.46Zm13.922.211c.112.007.157-.11.166-.281a1 1 0 0 1 .469-.314.677.677 0 0 0-.468.306c.018-.412-.166-1.135-.163-1.293.033-.707.139-1.408.308-2.113.15-.63.373-1.241.549-1.853.77-1.846 1.506-3.638 2.023-5.491.213-.762.369-1.536.514-2.31.223-1.181.373-2.36.572-3.543.055-.382.007-2.414.199-3.184.309-1.236 1.349-1.437 1.86-1.474a1.797 1.797 0 0 1 1.568 2.672 1.148 1.148 0 0 0-.08-.04c-.238-.107-.382.2-.475.647-.115.079-.24.145-.373.195.118-.034.24-.073.358-.118-.142.748-.154 1.815-.225 2.01-.49 1.509-1.022 2.992-1.435 4.534a35.64 35.64 0 0 0-.474 2.104c-.337 1.645-.628 3.304-1.047 4.993l-1.35 3.386c-.073.232-.34 1.237-.487 1.622-.593 1.542-1.884.855-2.012.262a1 1 0 0 1 .003-.717Zm7.597-18.878c.37.22-.06.493-.57.684l.015-.077c.228-.157.419-.364.555-.607Zm-7.448 18.618.018-.03-.001.009-.017.02Zm0 0a.79.79 0 0 0-.046.092c-.004.009-.023.026-.046.047a.984.984 0 0 1 .092-.14Zm-.15.26h-.002c-.07-.006.005-.072.06-.121a1.11 1.11 0 0 0-.057.12Zm6.126-17.961Zm-5.038 17.33a.978.978 0 0 1 .328.11.662.662 0 0 0-.328-.11Zm33.87-30.373.002.038v-.04c.258-.286.388-.544.145-.684-.012-.006-.023-.012-.034-.016a2.5 2.5 0 0 1 4.889.74c-.005.459-.141 1.13-.575 1.834-.4.648-1.2 1.513-1.541 2.006l-4.724 6.53a523.132 523.132 0 0 1-4.66 6.5c-1.555 2.13-3.162 4.22-4.612 6.423a71.413 71.413 0 0 0-3.41 5.783c-.467.892-1.028 1.846-1.724 2.738-.932 1.196-2.038 2.268-2.828 3.464-.343.519-.65 1.014-.858 1.548a.586.586 0 0 1-1.14-.265c.11-1.277.586-2.576 1.19-3.914.399-.886.825-1.767 1.306-2.611.462-.813.977-1.565 1.337-2.318.678-1.395 1.432-2.751 2.163-4.12 1.092-2.045 2.155-4.1 3.34-6.094 1.956-3.288 4.079-6.465 6.078-9.68l4.466-6.701c.172-.27.816-.745 1.19-1.161Zm0 0c-.013-.211-.102-.778.113-.702a2.53 2.53 0 0 0-.113.702Zm-10.033 44.844a.165.165 0 0 1 .028-.075c.19-.294.591-.965.82-1.282.301-.416.614-.802.956-1.191.502-.573 1.037-1.088 1.577-1.62.872-.766 1.808-1.852 2.899-2.955.977-.989 2.02-2.033 3.126-2.93.465-.378.948-.71 1.436-1.014 1.364-.852 2.66-1.47 3.822-1.822a.71.71 0 0 1 .628 1.274c-1.118.783-2.16 2.136-3.47 3.468-.772.785-1.636 1.53-2.472 2.27a42.053 42.053 0 0 1-2.204 1.825 25.86 25.86 0 0 1-2.442 1.673l-3.067 1.823c-.306.215-.88.699-1.145.904-.32.25-.616.023-.621-.016a.286.286 0 0 1 .129-.332Zm10.872 5.532a.555.555 0 0 1-1.104-.092c.009-.39.226-.69.549-.945.359-.285.94-.471 1.329-.725 1.144-.748 2.266-1.541 3.423-2.286a30.14 30.14 0 0 1 2.445-1.43c2.53-1.312 5.069-2.688 7.547-4.161 2.467-1.466 4.84-3.026 7.058-4.706 1.05-.795 2.562-1.453 3.809-2.23.336-.208.623-.448.847-.701a2.503 2.503 0 0 1 3.536 0c.975.976.975 2.56 0 3.536a8.77 8.77 0 0 1-2.104 1.37c-1.217.569-2.676.974-3.717 1.58a75.703 75.703 0 0 1-6.338 3.29c-3.192 1.477-6.484 2.794-9.752 4.017-.823.309-1.627.665-2.423 1.05-1.232.599-2.436 1.249-3.656 1.852l-1.45.58ZM136.3 110.46a.784.784 0 0 1-1.287.89c-.435-.477-.795-1.267-1.121-2.151-.404-1.097-.68-2.324-.891-3.136-.215-.972-.56-1.917-.861-2.892a67.387 67.387 0 0 1-.877-3.028 31.153 31.153 0 0 1-.558-2.77c-.192-1.411-.182-3.107-.378-4.643-.078-.611-.16-1.19-.353-1.698a.95.95 0 1 1 1.698-.85c.374.595.648 1.296.89 2.053.466 1.46.716 3.126 1.136 4.472.236.836.545 1.662.812 2.514.274.87.54 1.753.748 2.646.293 1.263.467 2.534.554 3.795.023.786.032 1.963.149 3.053.073.686.125 1.323.34 1.745Zm-14.164 4.298a.554.554 0 0 1-.732.83c-.448-.338-.805-.748-1.131-1.19-.671-.91-1.135-1.983-1.81-2.902a29.862 29.862 0 0 1-1.555-2.398c-1.08-1.832-2.016-3.742-3.181-5.532-2.612-4.292-5.671-8.251-8.501-12.4a100.538 100.538 0 0 1-2.104-3.22c-.955-1.531-1.911-3.258-2.992-4.852-.656-.967-1.363-1.88-2.155-2.648a2.137 2.137 0 0 1 3.02-3.021c.963.995 1.824 2.159 2.606 3.399 1.056 1.676 1.98 3.483 2.907 5.09 2.184 3.825 4.673 7.429 6.955 11.168a88.69 88.69 0 0 1 2.842 5.01l3.718 8.43c.536 1.019.84 2.16 1.374 3.17.203.383.429.748.739 1.066Zm-50.717-.61a1.518 1.518 0 0 1 .312-3.002c.304.01.684.083 1.07.3.428.24.953.738 1.32.94 1.097.6 2.234 1.284 3.383 1.908.474.258.947.506 1.42.73a26.064 26.064 0 0 1 2.88 1.609c1.333.849 2.618 1.78 3.937 2.673a50.009 50.009 0 0 0 2.454 1.56c1.98 1.179 4.015 2.26 5.953 3.535.935.63 1.85 1.24 2.747 1.882a48.946 48.946 0 0 1 2.658 2.035c.32.265.919.433 1.232.683.179.142.299.302.333.487a.335.335 0 1 1-.654.153l-1.415-.651a53.855 53.855 0 0 0-2.213-1.42 144.548 144.548 0 0 0-3.41-2.015 52.974 52.974 0 0 0-2.547-1.418c-2.05-1.074-4.136-2.058-6.14-3.23-1.361-.784-2.692-1.61-4.064-2.35a23.843 23.843 0 0 0-2.72-1.271 32.26 32.26 0 0 1-1.598-.674c-1.195-.536-2.383-1.132-3.524-1.65-.377-.171-1.558-.384-1.414-.814Zm.307.033h.005-.005Z"/>
        <path d="M210.671 85.349c.091-.258.327-.425.552-.594m-40.15-23.606c-.134-.124-.088-.271-.088-.451m-41.995.072c-.292 0-.236-.426-.338-.63M89.301 85.245c-.185.027-.208-.012-.338-.142" style="stroke-width:3.03px" transform="translate(-.452 19.642)"/>
        <path d="M110.577 122.894a.57.57 0 1 1-.317 1.094c-.882-.021-1.768-.435-2.734-1.013-1.147-.686-2.17-1.65-3.05-2.254-.354-.362-.736-.715-1.077-1.117-.752-.886-1.337-1.927-2.148-2.83a7.811 7.811 0 0 0-.893-.85c-.956-.775-2.012-1.351-3.087-1.873-.696-.338-1.4-.514-2.121-.714a2.501 2.501 0 0 1 2.237-4.472c1.568 1.162 2.878 2.602 4.26 4.145.526.586 1.06 1.17 1.642 1.703.91.834 1.95 1.46 2.829 2.253.377.34.709.715 1.057 1.057.328.439.705.94 1.059 1.523.438.72.798 1.479 1.28 2.14.362.498.635.95 1.063 1.208Z"/>
      </g>
    </g>
  </g>
</svg>